<?xml version="1.0" encoding="UTF-8"?>
<svg width="140px" height="52px" viewBox="0 0 140 52" version="1.1" xmlns="http://www.w3.org/2000/svg" xmlns:xlink="http://www.w3.org/1999/xlink">
    <!-- Generator: Sketch 40 (33762) - http://www.bohemiancoding.com/sketch -->
    <title>Untitled 2</title>
    <desc>Created with Sketch.</desc>
    <defs></defs>
    <g id="Page-1" stroke="none" stroke-width="1" fill="none" fill-rule="evenodd">
        <g id="Group" fill="#F3D475">
            <path d="M102.476,41.566 C99.102,41.453 96.87,41.382 94.328,41.382 C91.536,41.382 89.405,41.449 86.67,41.566 C86.491,41.482 86.362,41.25 86.312,40.943 C86.266,40.644 86.29,40.214 86.522,39.98 L88.074,39.787 C91.604,39.361 91.721,38.636 91.721,32.159 L91.721,10.102 C91.721,3.674 91.587,2.837 88.074,2.414 L87.093,2.289 C86.91,2.173 86.824,1.887 86.845,1.523 C86.866,1.19 86.986,0.807 87.205,0.698 C89.962,0.826 92.021,0.879 94.328,0.879 L105.603,0.879 C109.464,0.879 111.794,0.879 112.587,0.696 C112.628,3.691 112.692,6.561 112.811,8.813 C112.691,9.062 112.32,9.231 111.927,9.231 C111.672,9.231 111.444,9.157 111.288,9.023 C110.816,6.415 110.145,4.023 107.01,3.208 C105.666,2.843 104.899,2.843 102.356,2.843 L98.619,2.843 C96.812,2.843 96.812,2.934 96.812,5.261 L96.812,18.19 C96.812,19.813 96.961,19.813 98.803,19.813 L102.97,19.813 C105.362,19.813 106.768,19.701 107.528,19.448 C108.18,19.21 108.67,18.918 109.038,17.326 L109.59,14.876 C109.772,14.65 110.148,14.574 110.44,14.574 C110.732,14.574 111.098,14.648 111.241,14.864 C111.246,15.541 111.197,16.37 111.143,17.334 C111.076,18.498 111,19.815 111,21.07 C111,22.295 111.077,23.562 111.143,24.682 C111.197,25.596 111.246,26.389 111.246,27.014 C111.119,27.214 110.837,27.323 110.486,27.323 C110.139,27.323 109.807,27.219 109.601,27.04 L108.976,24.635 C108.723,23.718 108.292,22.724 107.037,22.33 C106.199,22.091 105.326,22.024 102.97,22.024 L98.8,22.024 C96.978,22.024 96.81,22.069 96.81,23.645 L96.81,32.164 C96.81,38.645 96.947,39.487 100.519,39.791 L102.602,39.976 C102.785,40.094 102.873,40.378 102.85,40.745 C102.829,41.077 102.711,41.46 102.492,41.568 L102.484,41.572 L102.476,41.566 L102.476,41.566 Z" id="Shape"></path>
            <path d="M124.587,41.675 C122.682,41.539 120.905,41.481 118.83,41.481 C116.657,41.481 114.827,41.543 113.072,41.675 C112.813,41.561 112.691,41.208 112.658,40.916 C112.623,40.596 112.674,40.187 112.928,39.991 L114.228,39.791 C116.445,39.473 116.53,38.859 116.53,34.164 L116.53,22.78 C116.53,20.38 115.97,19.986 114.474,18.933 L113.695,18.384 C113.55,18.231 113.477,17.925 113.514,17.635 C113.542,17.41 113.628,17.24 113.757,17.159 C114.168,17.007 114.793,16.815 115.517,16.592 C117.286,16.05 119.707,15.307 120.709,14.614 C120.716,14.613 120.723,14.613 120.727,14.613 C121.077,14.613 121.31,14.768 121.371,15.022 C121.247,17.335 121.126,19.808 121.126,22.455 L121.126,34.163 C121.126,38.853 121.255,39.471 123.427,39.789 L124.716,39.984 C124.983,40.181 125.034,40.591 124.998,40.917 C124.965,41.207 124.844,41.561 124.6,41.673 L124.593,41.677 L124.587,41.675 L124.587,41.675 Z" id="Shape"></path>
            <path d="M118.562,12.83 C116.762,12.83 115.404,11.5 115.404,9.734 C115.404,7.799 116.811,6.395 118.746,6.395 C120.511,6.395 121.842,7.778 121.842,9.613 C121.841,11.986 120.147,12.83 118.562,12.83" id="Shape"></path>
            <path d="M132.898,42.576 C127.154,42.576 126.38,39.027 126.38,35.555 L126.38,20.738 C126.38,18.98 126.32,18.894 125.102,18.894 L123.998,18.894 C123.577,18.61 123.534,17.872 123.782,17.484 C125.623,16.884 126.535,16.035 127.138,15.472 C127.921,14.722 129.117,12.979 129.75,11.663 C129.884,11.6 130.051,11.57 130.224,11.57 C130.64,11.57 130.974,11.726 131.117,11.985 L131.122,14.911 C131.122,16.053 131.173,16.109 132.212,16.109 L139.133,16.109 C139.505,16.391 139.706,16.951 139.687,17.615 C139.671,18.199 139.485,18.698 139.214,18.886 L132.15,18.892 C131.121,18.892 131.06,19.064 131.06,20.413 L131.06,32.514 C131.06,36.131 131.408,39.663 135.58,39.663 C136.141,39.663 136.703,39.557 137.252,39.343 C137.558,39.239 137.944,38.973 138.253,38.762 C138.556,38.553 138.733,38.436 138.824,38.436 C139.012,38.436 139.179,38.53 139.308,38.707 C139.486,38.952 139.559,39.325 139.478,39.581 C138.89,40.288 136.704,42.576 132.898,42.576" id="Shape"></path>
            <path d="M77.757,41.727 C77.452,41.727 77.206,41.634 77.031,41.446 C76.97,41.259 75.677,37.143 74.406,33.966 L71.342,26.154 C70.882,24.898 69.974,22.788 69.886,22.705 C69.827,22.793 68.967,24.82 68.529,26.017 L65.209,34.509 C64.125,37.267 63.192,39.79 62.655,41.435 C62.464,41.642 62.221,41.728 61.858,41.728 C61.701,41.728 61.308,41.702 61.069,41.447 C60.728,40.187 59.907,37.91 59.363,36.402 L59.147,35.797 L53.273,20.45 C51.834,16.721 51.096,15.995 49.464,15.58 L48.442,15.308 C48.223,15.084 48.129,14.628 48.202,14.241 C48.258,13.943 48.41,13.721 48.628,13.618 C50.666,13.753 52.47,13.817 54.323,13.817 C56.296,13.817 58.164,13.749 59.877,13.615 C60.136,13.746 60.304,14.054 60.333,14.422 C60.365,14.797 60.246,15.135 60.027,15.302 L58.545,15.579 C57.592,15.724 57.166,16.146 57.166,16.498 C57.166,16.925 57.517,18.27 58.187,20.019 L62.145,30.409 C62.454,31.25 62.759,31.982 62.983,32.517 C63.2,33.038 63.296,33.273 63.296,33.339 C63.423,33.185 63.914,32.095 64.703,30.068 L67.831,21.852 C68.695,19.589 68.703,18.756 68.405,17.935 C67.823,16.418 66.857,15.907 65.49,15.578 L64.468,15.307 C64.224,15.087 64.121,14.696 64.194,14.298 C64.256,13.962 64.428,13.707 64.656,13.617 C66.144,13.739 68.172,13.817 69.966,13.817 C71.885,13.817 73.812,13.753 76.03,13.615 C76.273,13.698 76.434,13.918 76.497,14.239 C76.577,14.645 76.468,15.102 76.245,15.3 L74.889,15.579 C73.66,15.841 73.076,16.019 72.864,16.384 C72.642,16.768 72.842,17.385 73.203,18.508 L73.253,18.662 C73.785,20.358 75.915,25.776 77.188,29.014 C77.603,30.071 77.935,30.913 78.105,31.362 L78.259,31.768 C78.554,32.563 78.768,33.133 78.926,33.247 C79.007,33.119 79.33,32.431 79.772,31.36 C80.598,29.401 83.155,22.193 84.111,19.342 C84.637,17.734 84.748,16.872 84.748,16.432 C84.748,16.017 84.339,15.705 83.626,15.58 L82.029,15.309 C81.728,15.112 81.653,14.709 81.677,14.394 C81.708,14.021 81.868,13.719 82.086,13.619 C83.993,13.754 85.595,13.818 87.143,13.818 C88.258,13.818 90.481,13.755 91.931,13.616 C92.184,13.744 92.35,14.036 92.393,14.401 C92.438,14.776 92.341,15.128 92.146,15.302 L90.212,15.581 C88.67,15.922 88.08,16.96 86.788,19.841 C85.05,23.677 81.958,31.913 80.788,35.252 L80.235,36.756 C79.583,38.522 79.02,40.043 78.618,41.432 C78.363,41.643 78.107,41.727 77.757,41.727" id="Shape"></path>
            <path d="M67.243,51.143 C65.043,51.143 62.721,51.046 60.341,50.86 C50.016,50.031 45.744,48.205 39.934,45.3 C35.28,42.973 31.64,40.85 23.748,32.856 C21.996,31.081 19.71,27.752 17.873,25.08 L17.383,24.365 C16.518,23.097 15.623,22.451 13.136,22.451 C10.442,22.451 10.337,22.499 10.337,23.742 L10.337,31.333 C10.337,37.638 10.454,38.349 13.921,38.824 L15.185,39.005 C15.415,39.193 15.455,39.575 15.42,39.874 C15.388,40.144 15.281,40.469 15.075,40.571 C12.146,40.44 10.136,40.391 7.896,40.391 C5.524,40.391 3.415,40.44 0.373,40.574 C0.204,40.494 0.084,40.293 0.03,40.024 C-0.046,39.641 0.03,39.245 0.227,39.014 L1.753,38.823 C5.22,38.406 5.337,37.692 5.337,31.332 L5.337,9.716 C5.337,3.95 5.159,3.001 2.715,2.705 L0.789,2.463 C0.556,2.301 0.427,1.951 0.457,1.588 C0.481,1.263 0.624,1.006 0.839,0.898 C4.528,0.566 8.796,0.414 14.278,0.414 C17.611,0.414 21.413,0.629 24.347,2.223 C26.633,3.414 29.36,5.849 29.36,10.681 C29.36,17.236 23.585,20.056 21.815,20.763 C21.544,21.094 21.8,21.702 22.13,22.16 C25.164,26.346 27.854,29.661 30.348,32.292 C32.364,34.417 34.322,36.176 36.337,37.662 C37.423,38.464 38.428,39.18 39.408,39.846 C46.692,44.794 53.639,47.77 67.606,48.334 C68.329,48.363 69.066,48.378 69.798,48.378 C82.319,48.378 93.107,44.143 98.291,42.107 C99.081,41.795 99.738,41.539 100.243,41.357 C100.394,41.301 100.632,41.277 100.95,41.277 C101.518,41.277 102.201,41.364 102.458,41.396 L102.566,41.411 C102.587,41.752 92.461,46.683 87.716,48.04 C82.22,49.609 76.111,51.143 67.243,51.143 M14.217,2.344 C10.443,2.344 10.336,2.615 10.336,4.24 L10.336,18.325 C10.336,19.408 10.336,20.06 10.511,20.294 C10.709,20.491 11.983,20.581 14.638,20.581 C16.561,20.581 18.999,20.403 20.82,19.023 C22.838,17.454 23.817,15.021 23.817,11.585 C23.816,7.322 21.303,2.344 14.217,2.344" id="Shape"></path>
            <path d="M47.958,41.622 C46.766,41.622 45.674,40.879 45.364,39.853 C45.172,39.22 45.124,38.566 45.085,38.042 C45.044,37.5 45.012,37.072 44.835,37.072 C44.64,37.072 44.331,37.417 43.94,37.852 C43.454,38.399 42.847,39.074 42.125,39.469 C41.513,39.805 40.687,40.069 39.671,40.251 L39.531,40.171 L39.372,40.065 C38.41,39.409 37.407,38.7 36.308,37.885 C34.307,36.411 32.361,34.662 30.352,32.545 L30.239,32.421 C30.882,30.496 32.509,28.893 35.208,27.483 C36.827,26.635 40.111,25.069 41.779,24.439 C45.448,23.051 45.047,21.052 45.043,21.032 C45.084,19.484 44.51,17.949 43.508,16.919 C42.526,15.911 41.202,15.399 39.57,15.399 C37.924,15.399 36.114,16.163 35.975,18.305 C35.945,18.79 35.944,19.313 35.944,19.819 C35.943,20.385 35.942,20.92 35.896,21.27 C35.728,22.532 35.363,23.061 33.541,23.061 C32.985,23.061 32.485,22.838 32.055,22.402 C31.359,21.697 31.021,20.575 31.028,20.146 C31.105,14.708 37.127,12.778 42.259,12.778 C44.491,12.778 46.213,13.391 47.375,14.602 C48.634,15.912 49.218,17.892 49.115,20.489 L49.244,31.92 C49.152,34.03 49.146,36.001 50.071,36.968 C50.466,37.379 51.001,37.579 51.707,37.579 C52.159,37.579 52.413,37.399 52.659,37.224 C52.764,37.152 52.87,37.077 52.987,37.019 C53.127,36.933 53.334,36.736 53.534,36.548 C53.857,36.237 54.062,36.054 54.177,36.054 C54.478,36.054 54.635,36.499 54.635,36.941 C54.635,37.258 51.487,41.318 48.199,41.616 C48.121,41.619 48.04,41.622 47.958,41.622 M44.728,25.327 C44.29,25.327 41.848,26.343 40.525,27.034 C36.637,29.056 34.988,30.851 35.009,33.035 C35.024,34.28 35.892,37.514 39.711,37.514 C41.198,37.514 43.534,36.381 44.273,35.643 C44.919,34.997 44.895,34.307 44.862,33.356 C44.85,33.006 44.837,32.614 44.857,32.184 L44.91,27.593 C44.909,26.975 44.909,25.327 44.728,25.327" id="Shape"></path>
        </g>
    </g>
</svg>